<mxfile host="app.diagrams.net" modified="2023-10-11T16:55:33.526Z" agent="Mozilla/5.0 (Windows NT 10.0; Win64; x64) AppleWebKit/537.36 (KHTML, like Gecko) Chrome/116.0.0.0 Safari/537.36 OPR/102.0.0.0" etag="Oi4aXl6B_xWLuJb_lXKn" version="22.0.4" type="device" pages="2">
  <diagram name="Page-1" id="vcw9xWu03qSX_MK4700U">
    <mxGraphModel dx="1009" dy="573" grid="1" gridSize="10" guides="1" tooltips="1" connect="1" arrows="1" fold="1" page="1" pageScale="1" pageWidth="850" pageHeight="1100" math="0" shadow="0">
      <root>
        <mxCell id="0" />
        <mxCell id="1" parent="0" />
        <mxCell id="5GN9TvxnXzzGbhBwK1TZ-6" style="edgeStyle=orthogonalEdgeStyle;rounded=0;orthogonalLoop=1;jettySize=auto;html=1;exitX=0.5;exitY=1;exitDx=0;exitDy=0;entryX=0.5;entryY=0;entryDx=0;entryDy=0;" edge="1" parent="1" source="5GN9TvxnXzzGbhBwK1TZ-1" target="5GN9TvxnXzzGbhBwK1TZ-2">
          <mxGeometry relative="1" as="geometry" />
        </mxCell>
        <mxCell id="5GN9TvxnXzzGbhBwK1TZ-1" value="Start_RicePriceOptimizing" style="ellipse;whiteSpace=wrap;html=1;" vertex="1" parent="1">
          <mxGeometry x="300" y="30" width="250" height="60" as="geometry" />
        </mxCell>
        <mxCell id="5GN9TvxnXzzGbhBwK1TZ-7" style="edgeStyle=orthogonalEdgeStyle;rounded=0;orthogonalLoop=1;jettySize=auto;html=1;exitX=0.5;exitY=1;exitDx=0;exitDy=0;entryX=0.5;entryY=0;entryDx=0;entryDy=0;" edge="1" parent="1" source="5GN9TvxnXzzGbhBwK1TZ-2" target="5GN9TvxnXzzGbhBwK1TZ-3">
          <mxGeometry relative="1" as="geometry" />
        </mxCell>
        <mxCell id="5GN9TvxnXzzGbhBwK1TZ-2" value="INPUT w1" style="shape=parallelogram;perimeter=parallelogramPerimeter;whiteSpace=wrap;html=1;fixedSize=1;" vertex="1" parent="1">
          <mxGeometry x="320" y="120" width="210" height="40" as="geometry" />
        </mxCell>
        <mxCell id="5GN9TvxnXzzGbhBwK1TZ-8" style="edgeStyle=orthogonalEdgeStyle;rounded=0;orthogonalLoop=1;jettySize=auto;html=1;exitX=0.5;exitY=1;exitDx=0;exitDy=0;entryX=0.5;entryY=0;entryDx=0;entryDy=0;" edge="1" parent="1" source="5GN9TvxnXzzGbhBwK1TZ-3" target="5GN9TvxnXzzGbhBwK1TZ-4">
          <mxGeometry relative="1" as="geometry" />
        </mxCell>
        <mxCell id="5GN9TvxnXzzGbhBwK1TZ-3" value="INPUT p1" style="shape=parallelogram;perimeter=parallelogramPerimeter;whiteSpace=wrap;html=1;fixedSize=1;" vertex="1" parent="1">
          <mxGeometry x="320" y="190" width="210" height="40" as="geometry" />
        </mxCell>
        <mxCell id="5GN9TvxnXzzGbhBwK1TZ-9" style="edgeStyle=orthogonalEdgeStyle;rounded=0;orthogonalLoop=1;jettySize=auto;html=1;exitX=0.5;exitY=1;exitDx=0;exitDy=0;entryX=0.5;entryY=0;entryDx=0;entryDy=0;" edge="1" parent="1" source="5GN9TvxnXzzGbhBwK1TZ-4" target="5GN9TvxnXzzGbhBwK1TZ-5">
          <mxGeometry relative="1" as="geometry" />
        </mxCell>
        <mxCell id="5GN9TvxnXzzGbhBwK1TZ-4" value="INPUT w2" style="shape=parallelogram;perimeter=parallelogramPerimeter;whiteSpace=wrap;html=1;fixedSize=1;" vertex="1" parent="1">
          <mxGeometry x="320" y="260" width="210" height="40" as="geometry" />
        </mxCell>
        <mxCell id="5GN9TvxnXzzGbhBwK1TZ-16" style="edgeStyle=orthogonalEdgeStyle;rounded=0;orthogonalLoop=1;jettySize=auto;html=1;exitX=0.5;exitY=1;exitDx=0;exitDy=0;entryX=0.5;entryY=0;entryDx=0;entryDy=0;" edge="1" parent="1" source="5GN9TvxnXzzGbhBwK1TZ-5" target="5GN9TvxnXzzGbhBwK1TZ-10">
          <mxGeometry relative="1" as="geometry" />
        </mxCell>
        <mxCell id="5GN9TvxnXzzGbhBwK1TZ-5" value="INPUT p2" style="shape=parallelogram;perimeter=parallelogramPerimeter;whiteSpace=wrap;html=1;fixedSize=1;" vertex="1" parent="1">
          <mxGeometry x="320" y="330" width="210" height="40" as="geometry" />
        </mxCell>
        <mxCell id="5GN9TvxnXzzGbhBwK1TZ-17" style="edgeStyle=orthogonalEdgeStyle;rounded=0;orthogonalLoop=1;jettySize=auto;html=1;exitX=0.5;exitY=1;exitDx=0;exitDy=0;entryX=0.5;entryY=0;entryDx=0;entryDy=0;" edge="1" parent="1" source="5GN9TvxnXzzGbhBwK1TZ-10" target="5GN9TvxnXzzGbhBwK1TZ-11">
          <mxGeometry relative="1" as="geometry" />
        </mxCell>
        <mxCell id="5GN9TvxnXzzGbhBwK1TZ-10" value="r1 = w1/p1" style="rounded=0;whiteSpace=wrap;html=1;" vertex="1" parent="1">
          <mxGeometry x="330" y="430" width="190" height="40" as="geometry" />
        </mxCell>
        <mxCell id="5GN9TvxnXzzGbhBwK1TZ-18" style="edgeStyle=orthogonalEdgeStyle;rounded=0;orthogonalLoop=1;jettySize=auto;html=1;exitX=0.5;exitY=1;exitDx=0;exitDy=0;entryX=0.5;entryY=0;entryDx=0;entryDy=0;" edge="1" parent="1" source="5GN9TvxnXzzGbhBwK1TZ-11" target="5GN9TvxnXzzGbhBwK1TZ-12">
          <mxGeometry relative="1" as="geometry" />
        </mxCell>
        <mxCell id="5GN9TvxnXzzGbhBwK1TZ-11" value="r2 = w2/p2" style="rounded=0;whiteSpace=wrap;html=1;" vertex="1" parent="1">
          <mxGeometry x="330" y="500" width="190" height="40" as="geometry" />
        </mxCell>
        <mxCell id="5GN9TvxnXzzGbhBwK1TZ-19" style="edgeStyle=orthogonalEdgeStyle;rounded=0;orthogonalLoop=1;jettySize=auto;html=1;exitX=0;exitY=0.5;exitDx=0;exitDy=0;entryX=0.5;entryY=0;entryDx=0;entryDy=0;" edge="1" parent="1" source="5GN9TvxnXzzGbhBwK1TZ-12" target="5GN9TvxnXzzGbhBwK1TZ-15">
          <mxGeometry relative="1" as="geometry" />
        </mxCell>
        <mxCell id="5GN9TvxnXzzGbhBwK1TZ-20" style="edgeStyle=orthogonalEdgeStyle;rounded=0;orthogonalLoop=1;jettySize=auto;html=1;exitX=1;exitY=0.5;exitDx=0;exitDy=0;entryX=0.5;entryY=0;entryDx=0;entryDy=0;" edge="1" parent="1" source="5GN9TvxnXzzGbhBwK1TZ-12" target="5GN9TvxnXzzGbhBwK1TZ-13">
          <mxGeometry relative="1" as="geometry" />
        </mxCell>
        <mxCell id="5GN9TvxnXzzGbhBwK1TZ-12" value="IF r1 &amp;gt; r2" style="rhombus;whiteSpace=wrap;html=1;" vertex="1" parent="1">
          <mxGeometry x="360" y="580" width="130" height="130" as="geometry" />
        </mxCell>
        <mxCell id="5GN9TvxnXzzGbhBwK1TZ-25" style="edgeStyle=orthogonalEdgeStyle;rounded=0;orthogonalLoop=1;jettySize=auto;html=1;exitX=0.5;exitY=1;exitDx=0;exitDy=0;" edge="1" parent="1" source="5GN9TvxnXzzGbhBwK1TZ-13" target="5GN9TvxnXzzGbhBwK1TZ-22">
          <mxGeometry relative="1" as="geometry" />
        </mxCell>
        <mxCell id="5GN9TvxnXzzGbhBwK1TZ-13" value="PRINT &quot;Package 1 the better price&quot;" style="shape=parallelogram;perimeter=parallelogramPerimeter;whiteSpace=wrap;html=1;fixedSize=1;" vertex="1" parent="1">
          <mxGeometry x="510" y="680" width="260" height="60" as="geometry" />
        </mxCell>
        <mxCell id="5GN9TvxnXzzGbhBwK1TZ-15" value="PRINT &quot;Package 2 the better price&quot;" style="shape=parallelogram;perimeter=parallelogramPerimeter;whiteSpace=wrap;html=1;fixedSize=1;" vertex="1" parent="1">
          <mxGeometry x="70" y="680" width="260" height="60" as="geometry" />
        </mxCell>
        <mxCell id="5GN9TvxnXzzGbhBwK1TZ-21" value="End_RicePriceOptimizing" style="ellipse;whiteSpace=wrap;html=1;" vertex="1" parent="1">
          <mxGeometry x="300" y="870" width="250" height="60" as="geometry" />
        </mxCell>
        <mxCell id="5GN9TvxnXzzGbhBwK1TZ-26" value="" style="edgeStyle=orthogonalEdgeStyle;rounded=0;orthogonalLoop=1;jettySize=auto;html=1;" edge="1" parent="1" source="5GN9TvxnXzzGbhBwK1TZ-22" target="5GN9TvxnXzzGbhBwK1TZ-21">
          <mxGeometry relative="1" as="geometry" />
        </mxCell>
        <mxCell id="5GN9TvxnXzzGbhBwK1TZ-22" value="" style="shape=waypoint;sketch=0;size=6;pointerEvents=1;points=[];fillColor=none;resizable=0;rotatable=0;perimeter=centerPerimeter;snapToPoint=1;" vertex="1" parent="1">
          <mxGeometry x="415" y="790" width="20" height="20" as="geometry" />
        </mxCell>
        <mxCell id="5GN9TvxnXzzGbhBwK1TZ-23" style="edgeStyle=orthogonalEdgeStyle;rounded=0;orthogonalLoop=1;jettySize=auto;html=1;exitX=0.5;exitY=1;exitDx=0;exitDy=0;entryX=0.14;entryY=0.72;entryDx=0;entryDy=0;entryPerimeter=0;" edge="1" parent="1" source="5GN9TvxnXzzGbhBwK1TZ-15" target="5GN9TvxnXzzGbhBwK1TZ-22">
          <mxGeometry relative="1" as="geometry" />
        </mxCell>
        <mxCell id="e5uNx_ehUkCzxuJq-P_A-1" value="True" style="text;html=1;align=center;verticalAlign=middle;resizable=0;points=[];autosize=1;strokeColor=none;fillColor=none;" vertex="1" parent="1">
          <mxGeometry x="515" y="618" width="50" height="30" as="geometry" />
        </mxCell>
        <mxCell id="e5uNx_ehUkCzxuJq-P_A-2" value="False" style="text;html=1;align=center;verticalAlign=middle;resizable=0;points=[];autosize=1;strokeColor=none;fillColor=none;" vertex="1" parent="1">
          <mxGeometry x="265" y="618" width="50" height="30" as="geometry" />
        </mxCell>
      </root>
    </mxGraphModel>
  </diagram>
  <diagram id="aIH8ZPzHVwBATk_CHuMj" name="Page-2">
    <mxGraphModel dx="1009" dy="573" grid="1" gridSize="10" guides="1" tooltips="1" connect="1" arrows="1" fold="1" page="1" pageScale="1" pageWidth="850" pageHeight="1100" math="0" shadow="0">
      <root>
        <mxCell id="0" />
        <mxCell id="1" parent="0" />
        <mxCell id="3MQTrobC2ELX6P1OW-7Y-3" style="edgeStyle=orthogonalEdgeStyle;rounded=0;orthogonalLoop=1;jettySize=auto;html=1;exitX=0.5;exitY=1;exitDx=0;exitDy=0;entryX=0.5;entryY=0;entryDx=0;entryDy=0;" edge="1" parent="1" source="NUghuNlJZpRuITPep-4P-1" target="P9qGb5Q7kXwZ3dmZobLf-1">
          <mxGeometry relative="1" as="geometry" />
        </mxCell>
        <mxCell id="NUghuNlJZpRuITPep-4P-1" value="Start_HiFiveHiEvenBye" style="ellipse;whiteSpace=wrap;html=1;" vertex="1" parent="1">
          <mxGeometry x="300" y="30" width="250" height="60" as="geometry" />
        </mxCell>
        <mxCell id="3MQTrobC2ELX6P1OW-7Y-4" style="edgeStyle=orthogonalEdgeStyle;rounded=0;orthogonalLoop=1;jettySize=auto;html=1;exitX=0.5;exitY=1;exitDx=0;exitDy=0;entryX=0.5;entryY=0;entryDx=0;entryDy=0;" edge="1" parent="1" source="P9qGb5Q7kXwZ3dmZobLf-1" target="P9qGb5Q7kXwZ3dmZobLf-2">
          <mxGeometry relative="1" as="geometry" />
        </mxCell>
        <mxCell id="P9qGb5Q7kXwZ3dmZobLf-1" value="INPUT n" style="shape=parallelogram;perimeter=parallelogramPerimeter;whiteSpace=wrap;html=1;fixedSize=1;" vertex="1" parent="1">
          <mxGeometry x="320" y="120" width="210" height="40" as="geometry" />
        </mxCell>
        <mxCell id="3MQTrobC2ELX6P1OW-7Y-12" value="" style="edgeStyle=orthogonalEdgeStyle;rounded=0;orthogonalLoop=1;jettySize=auto;html=1;" edge="1" parent="1" source="P9qGb5Q7kXwZ3dmZobLf-2" target="P9qGb5Q7kXwZ3dmZobLf-4">
          <mxGeometry relative="1" as="geometry" />
        </mxCell>
        <mxCell id="P9qGb5Q7kXwZ3dmZobLf-2" value="IF n % 5 == 0" style="rhombus;whiteSpace=wrap;html=1;" vertex="1" parent="1">
          <mxGeometry x="375" y="200" width="100" height="100" as="geometry" />
        </mxCell>
        <mxCell id="3MQTrobC2ELX6P1OW-7Y-9" value="" style="edgeStyle=orthogonalEdgeStyle;rounded=0;orthogonalLoop=1;jettySize=auto;html=1;" edge="1" parent="1" source="P9qGb5Q7kXwZ3dmZobLf-4" target="P9qGb5Q7kXwZ3dmZobLf-7">
          <mxGeometry relative="1" as="geometry" />
        </mxCell>
        <mxCell id="P9qGb5Q7kXwZ3dmZobLf-4" value="PRINT &quot;HiFive&quot;" style="shape=parallelogram;perimeter=parallelogramPerimeter;whiteSpace=wrap;html=1;fixedSize=1;" vertex="1" parent="1">
          <mxGeometry x="320" y="340" width="210" height="40" as="geometry" />
        </mxCell>
        <mxCell id="3MQTrobC2ELX6P1OW-7Y-6" style="edgeStyle=orthogonalEdgeStyle;rounded=0;orthogonalLoop=1;jettySize=auto;html=1;exitX=0;exitY=0.5;exitDx=0;exitDy=0;" edge="1" parent="1" source="P9qGb5Q7kXwZ3dmZobLf-5" target="P9qGb5Q7kXwZ3dmZobLf-8">
          <mxGeometry relative="1" as="geometry">
            <Array as="points">
              <mxPoint x="230" y="520" />
              <mxPoint x="230" y="720" />
            </Array>
          </mxGeometry>
        </mxCell>
        <mxCell id="3MQTrobC2ELX6P1OW-7Y-13" value="" style="edgeStyle=orthogonalEdgeStyle;rounded=0;orthogonalLoop=1;jettySize=auto;html=1;" edge="1" parent="1" source="P9qGb5Q7kXwZ3dmZobLf-5" target="P9qGb5Q7kXwZ3dmZobLf-6">
          <mxGeometry relative="1" as="geometry" />
        </mxCell>
        <mxCell id="P9qGb5Q7kXwZ3dmZobLf-5" value="IF n % 2 == 0" style="rhombus;whiteSpace=wrap;html=1;" vertex="1" parent="1">
          <mxGeometry x="375" y="470" width="100" height="100" as="geometry" />
        </mxCell>
        <mxCell id="3MQTrobC2ELX6P1OW-7Y-14" value="" style="edgeStyle=orthogonalEdgeStyle;rounded=0;orthogonalLoop=1;jettySize=auto;html=1;" edge="1" parent="1" source="P9qGb5Q7kXwZ3dmZobLf-6" target="P9qGb5Q7kXwZ3dmZobLf-8">
          <mxGeometry relative="1" as="geometry" />
        </mxCell>
        <mxCell id="P9qGb5Q7kXwZ3dmZobLf-6" value="PRINT &quot;HiEven&quot;" style="shape=parallelogram;perimeter=parallelogramPerimeter;whiteSpace=wrap;html=1;fixedSize=1;" vertex="1" parent="1">
          <mxGeometry x="320" y="620" width="210" height="40" as="geometry" />
        </mxCell>
        <mxCell id="3MQTrobC2ELX6P1OW-7Y-8" value="" style="edgeStyle=orthogonalEdgeStyle;rounded=0;orthogonalLoop=1;jettySize=auto;html=1;" edge="1" parent="1" source="P9qGb5Q7kXwZ3dmZobLf-7" target="P9qGb5Q7kXwZ3dmZobLf-5">
          <mxGeometry relative="1" as="geometry" />
        </mxCell>
        <mxCell id="P9qGb5Q7kXwZ3dmZobLf-7" value="" style="shape=waypoint;sketch=0;size=6;pointerEvents=1;points=[];fillColor=none;resizable=0;rotatable=0;perimeter=centerPerimeter;snapToPoint=1;" vertex="1" parent="1">
          <mxGeometry x="415" y="420" width="20" height="20" as="geometry" />
        </mxCell>
        <mxCell id="3MQTrobC2ELX6P1OW-7Y-7" value="" style="edgeStyle=orthogonalEdgeStyle;rounded=0;orthogonalLoop=1;jettySize=auto;html=1;" edge="1" parent="1" source="P9qGb5Q7kXwZ3dmZobLf-8" target="P9qGb5Q7kXwZ3dmZobLf-9">
          <mxGeometry relative="1" as="geometry" />
        </mxCell>
        <mxCell id="P9qGb5Q7kXwZ3dmZobLf-8" value="" style="shape=waypoint;sketch=0;size=6;pointerEvents=1;points=[];fillColor=none;resizable=0;rotatable=0;perimeter=centerPerimeter;snapToPoint=1;" vertex="1" parent="1">
          <mxGeometry x="415" y="710" width="20" height="20" as="geometry" />
        </mxCell>
        <mxCell id="P9qGb5Q7kXwZ3dmZobLf-9" value="End_HiFiveHiEvenBye" style="ellipse;whiteSpace=wrap;html=1;" vertex="1" parent="1">
          <mxGeometry x="300" y="800" width="250" height="60" as="geometry" />
        </mxCell>
        <mxCell id="3MQTrobC2ELX6P1OW-7Y-5" style="edgeStyle=orthogonalEdgeStyle;rounded=0;orthogonalLoop=1;jettySize=auto;html=1;exitX=0;exitY=0.5;exitDx=0;exitDy=0;entryX=0.11;entryY=0.58;entryDx=0;entryDy=0;entryPerimeter=0;" edge="1" parent="1" source="P9qGb5Q7kXwZ3dmZobLf-2" target="P9qGb5Q7kXwZ3dmZobLf-7">
          <mxGeometry relative="1" as="geometry">
            <Array as="points">
              <mxPoint x="230" y="250" />
              <mxPoint x="230" y="430" />
            </Array>
          </mxGeometry>
        </mxCell>
        <mxCell id="3MQTrobC2ELX6P1OW-7Y-10" value="True" style="text;html=1;align=center;verticalAlign=middle;resizable=0;points=[];autosize=1;strokeColor=none;fillColor=none;" vertex="1" parent="1">
          <mxGeometry x="425" y="300" width="50" height="30" as="geometry" />
        </mxCell>
        <mxCell id="3MQTrobC2ELX6P1OW-7Y-11" value="False" style="text;html=1;align=center;verticalAlign=middle;resizable=0;points=[];autosize=1;strokeColor=none;fillColor=none;" vertex="1" parent="1">
          <mxGeometry x="300" y="218" width="50" height="30" as="geometry" />
        </mxCell>
        <mxCell id="3MQTrobC2ELX6P1OW-7Y-15" value="True" style="text;html=1;align=center;verticalAlign=middle;resizable=0;points=[];autosize=1;strokeColor=none;fillColor=none;" vertex="1" parent="1">
          <mxGeometry x="425" y="578" width="50" height="30" as="geometry" />
        </mxCell>
        <mxCell id="3MQTrobC2ELX6P1OW-7Y-16" value="False" style="text;html=1;align=center;verticalAlign=middle;resizable=0;points=[];autosize=1;strokeColor=none;fillColor=none;" vertex="1" parent="1">
          <mxGeometry x="305" y="488" width="50" height="30" as="geometry" />
        </mxCell>
      </root>
    </mxGraphModel>
  </diagram>
</mxfile>
